<svg width="35" height="44" viewBox="0 0 35 44" fill="none" xmlns="http://www.w3.org/2000/svg">
<path d="M1.97505 40.4769C1.14673 40.4907 0.486426 41.1734 0.500208 42.0017C0.513989 42.83 1.19664 43.4903 2.02495 43.4765L1.97505 40.4769ZM20.3268 0.579687C19.5294 0.354951 18.7008 0.819154 18.4761 1.61652L14.8138 14.6103C14.5891 15.4076 15.0533 16.2362 15.8506 16.4609C16.648 16.6857 17.4766 16.2215 17.7013 15.4241L20.9567 3.87411L32.5067 7.12949C33.3041 7.35422 34.1326 6.89002 34.3574 6.09266C34.5821 5.2953 34.1179 4.46672 33.3205 4.24198L20.3268 0.579687ZM2.02495 43.4765C11.9491 43.3114 20.5312 39.4258 24.7094 31.9858C28.8976 24.5281 28.3657 14.0298 21.2285 1.29029L18.6112 2.75659C25.474 15.0062 25.571 24.325 22.0937 30.5168C18.6064 36.7265 11.2286 40.323 1.97505 40.4769L2.02495 43.4765Z" fill="#E15544"/>
</svg>
