<svg width="389" height="52" viewBox="0 0 389 52" fill="none" xmlns="http://www.w3.org/2000/svg">
<path d="M357.385 0.930584C356.795 0.349673 355.845 0.357547 355.264 0.948169C354.683 1.53879 354.691 2.48851 355.282 3.06942L357.385 0.930584ZM340.452 42.5978C340.065 43.3304 340.346 44.2378 341.078 44.6246L353.017 50.9273C353.749 51.3141 354.657 51.0337 355.043 50.3011C355.43 49.5685 355.15 48.6611 354.417 48.2743L343.805 42.6719L349.408 32.06C349.794 31.3274 349.514 30.42 348.781 30.0332C348.049 29.6464 347.141 29.9268 346.755 30.6594L340.452 42.5978ZM355.282 3.06942C361.88 9.55912 364.746 17.25 362.993 24.1526C361.244 31.0355 354.751 37.7202 341.336 41.8649L342.221 44.7312C356.173 40.4208 363.795 33.1812 365.901 24.8913C368.001 16.6211 364.462 7.89053 357.385 0.930584L355.282 3.06942Z" fill="#E15544"/>
</svg>
