<svg width="22" height="55" viewBox="0 0 22 55" fill="none" xmlns="http://www.w3.org/2000/svg">
<path d="M9.58575 5.43026L2.70793 12.3291C2.31716 12.721 1.68233 12.721 1.29156 12.3291L0.703881 11.7396C0.314791 11.3493 0.314791 10.7178 0.703881 10.3276L10.2918 0.710346C10.6826 0.318386 11.3174 0.318386 11.7082 0.710346L21.2961 10.3276C21.6852 10.7178 21.6852 11.3493 21.2961 11.7396L20.7084 12.3291C20.3177 12.721 19.6828 12.721 19.2921 12.3291L12.4142 5.43026L12.4142 54C12.4142 54.5523 11.9665 55 11.4142 55H10.5858C10.0335 55 9.58575 54.5523 9.58575 54L9.58575 5.43026Z" fill="#02F4BF"/>
</svg>
