<svg width="61" height="60" viewBox="0 0 61 60" fill="none" xmlns="http://www.w3.org/2000/svg">
<path d="M59.3783 27.3573L33.1466 1.12561C31.6458 -0.375204 29.1662 -0.375204 27.6654 1.12561L22.2494 6.5416L29.1662 13.4584C30.7975 12.9364 32.6246 13.2626 33.8644 14.5677C35.1695 15.8728 35.4958 17.6998 34.9737 19.3312L41.6295 25.987C43.2608 25.4649 45.0879 25.7912 46.393 27.0963C48.2201 28.8581 48.2201 31.7945 46.393 33.6215C44.5659 35.4486 41.6948 35.4486 39.8677 33.6215C38.4974 32.2512 38.1711 30.2936 38.8889 28.5971L32.6899 22.398V38.7113C33.1466 38.907 33.5382 39.2333 33.9297 39.5595C35.7568 41.3214 35.7568 44.2578 33.9297 46.0848C32.1026 47.8467 29.2315 47.8467 27.4044 46.0848C25.5773 44.2578 25.5773 41.3866 27.4044 39.5595C27.8612 39.1028 28.3832 38.7765 28.9052 38.5808V22.0718C28.3832 21.876 27.8612 21.4845 27.4044 21.093C26.0341 19.7227 25.7078 17.7651 26.4256 16.0685L19.5741 9.28222L1.62952 27.2268C0.128702 28.7276 0.128702 31.2072 1.62952 32.708L27.7959 58.8744C29.2967 60.3752 31.7763 60.3752 33.2772 58.8744L59.313 32.8385C60.8791 31.2724 60.8791 28.8581 59.3783 27.3573Z" fill="#02F4BF"/>
</svg>
