<svg width="30" height="30" viewBox="0 0 30 30" fill="none" xmlns="http://www.w3.org/2000/svg">
<path d="M15 0.259186C6.7125 0.259186 2.18932e-06 6.97169 2.18932e-06 15.2592C-0.00169914 18.4081 0.988222 21.4776 2.82933 24.0322C4.67043 26.5868 7.26922 28.4968 10.257 29.4912C11.007 29.6217 11.2875 29.1717 11.2875 28.7772C11.2875 28.4217 11.268 27.2412 11.268 25.9842C7.5 26.6787 6.525 25.0662 6.225 24.2217C6.0555 23.7897 5.325 22.4592 4.6875 22.1022C4.1625 21.8217 3.4125 21.1272 4.668 21.1092C5.85 21.0897 6.693 22.1967 6.975 22.6467C8.325 24.9147 10.482 24.2772 11.343 23.8842C11.475 22.9092 11.868 22.2537 12.3 21.8787C8.9625 21.5037 5.475 20.2092 5.475 14.4717C5.475 12.8397 6.0555 11.4912 7.0125 10.4397C6.8625 10.0647 6.3375 8.52719 7.1625 6.46469C7.1625 6.46469 8.418 6.07169 11.2875 8.00369C12.5086 7.66478 13.7703 7.4942 15.0375 7.49669C16.3125 7.49669 17.5875 7.66469 18.7875 8.00219C21.6555 6.05219 22.9125 6.46619 22.9125 6.46619C23.7375 8.52868 23.2125 10.0662 23.0625 10.4412C24.018 11.4912 24.6 12.8217 24.6 14.4717C24.6 20.2287 21.0945 21.5037 17.757 21.8787C18.3 22.3467 18.7695 23.2467 18.7695 24.6537C18.7695 26.6592 18.75 28.2717 18.75 28.7787C18.75 29.1717 19.032 29.6397 19.782 29.4897C22.7595 28.4844 25.3469 26.5707 27.1799 24.0179C29.0128 21.4651 29.9991 18.4019 30 15.2592C30 6.97169 23.2875 0.259186 15 0.259186Z" fill="#02F4BF"/>
</svg>
