<svg width="61" height="61" viewBox="0 0 61 61" fill="none" xmlns="http://www.w3.org/2000/svg">
<g clip-path="url(#clip0_40917_1947)">
<path d="M8.4 10.3V50.8C3.5 45.4 0.5 38.3 0.5 30.5C0.5 22.7 3.5 15.6 8.4 10.3Z" fill="#02F4BF"/>
<path d="M11.5996 14.7L28.8996 49.4H11.5996V14.7Z" fill="#02F4BF"/>
<path d="M30.5 45.5001L13.5 11.6001H47.5L30.5 45.5001Z" fill="#02F4BF"/>
<path d="M30.5 0.5C38.3 0.5 45.4001 3.5 50.7001 8.4H10.3C15.6 3.5 22.7 0.5 30.5 0.5Z" fill="#02F4BF"/>
<path d="M49.3996 49.4H32.0996L49.3996 14.7V49.4Z" fill="#02F4BF"/>
<path d="M50.7001 52.6001C45.4001 57.5001 38.3 60.5001 30.5 60.5001C22.7 60.5001 15.6 57.5001 10.3 52.6001H50.7001Z" fill="#02F4BF"/>
<path d="M52.5996 50.7001V10.3C57.4996 15.6 60.4996 22.7 60.4996 30.5C60.4996 38.3 57.4996 45.4001 52.5996 50.7001Z" fill="#02F4BF"/>
<path d="M11.5996 14.7002L28.8996 49.4002H11.5996V14.7002Z" fill="#02F4BF"/>
<path d="M30.5 45.5001L13.5 11.6001H47.5L30.5 45.5001Z" fill="#02F4BF"/>
<path d="M32.0996 49.4002L49.3996 14.7002V49.4002H32.0996Z" fill="#02F4BF"/>
<path d="M13.5 11.6001H47.5L30.5 45.5001L13.5 11.6001Z" fill="#02F4BF"/>
</g>
<defs>
<clipPath id="clip0_40917_1947">
<rect width="60" height="60" fill="white" transform="translate(0.5 0.5)"/>
</clipPath>
</defs>
</svg>
