<svg width="20" height="24" viewBox="0 0 20 24" fill="none" xmlns="http://www.w3.org/2000/svg">
<path d="M4.24073 10.8465C5.81578 14.4945 8.35335 17.4723 11.4487 19.3414L13.8551 16.5055C14.1504 16.1574 14.5879 16.0414 14.9707 16.1961C16.1958 16.673 17.5192 16.9309 18.8755 16.9309C19.4771 16.9309 19.9693 17.5109 19.9693 18.2199V22.7187C19.9693 23.4277 19.4771 24.0078 18.8755 24.0078C8.60492 24.0078 0.28125 14.198 0.28125 2.09375C0.28125 1.38477 0.773451 0.804688 1.37503 0.804688H5.20326C5.80484 0.804688 6.29704 1.38477 6.29704 2.09375C6.29704 3.70508 6.5158 5.25195 6.9205 6.6957C7.04081 7.14687 6.95331 7.64961 6.64705 8.01055L4.24073 10.8465Z" fill="#02F4BF"/>
</svg>
