<svg width="65" height="60" viewBox="0 0 65 60" fill="none" xmlns="http://www.w3.org/2000/svg">
<path fill-rule="evenodd" clip-rule="evenodd" d="M63.1941 15.7639L57.5123 23.7083L51.8305 15.7639H54.9284C54.6922 9.86111 49.8162 5.13889 43.8565 5.13889C38.8277 5.13889 34.5629 8.51389 33.2153 13.1111C31.5761 12.5833 29.8813 12.25 28.1587 12.0972C28.3532 11.3611 28.6032 10.625 28.9089 9.91667C29.7285 7.98611 30.8954 6.25 32.3818 4.76389C33.8683 3.27778 35.6047 2.09722 37.5357 1.29167C39.5362 0.430556 41.6616 0 43.8565 0C46.0515 0 48.1769 0.430556 50.1773 1.27778C52.1083 2.09722 53.8448 3.26389 55.3312 4.75C56.8177 6.23611 57.9846 7.97222 58.8042 9.90278C59.5961 11.7639 60.0267 13.7361 60.0684 15.7639H63.1941Z" fill="#02F4BF"/>
<path fill-rule="evenodd" clip-rule="evenodd" d="M55.248 59.9999V56.5832H35.6604C35.7993 56.5138 35.9382 56.4582 36.0772 56.3888C38.2026 55.3749 40.1614 54.0554 41.9118 52.4443C42.1479 52.2221 42.3702 52.0138 42.5786 51.8054C42.8147 51.5693 43.0648 51.3193 43.3009 51.0554C43.5788 50.7499 43.8566 50.4304 44.1067 50.111H55.248V46.6943L64.5555 53.3471L55.248 59.9999Z" fill="#02F4BF"/>
<path fill-rule="evenodd" clip-rule="evenodd" d="M48.0241 35.3195C48.0241 38.2778 47.4406 41.1528 46.3015 43.8611C45.3291 46.1667 43.9677 48.2778 42.2728 50.125C42.0506 50.3611 41.8283 50.5973 41.606 50.8334C41.3977 51.0417 41.1893 51.2361 40.9809 51.4445C39.3416 52.9584 37.5079 54.1945 35.5075 55.1528C35.2296 55.2917 34.9379 55.4167 34.6462 55.5417C34.6323 55.5417 34.6323 55.5556 34.6184 55.5556C32.9514 56.2639 31.1593 56.6111 29.3395 56.6111H0.444336V50.1528H27.2696C35.3825 50.1528 42.0367 43.6667 42.1478 35.5556C42.1478 35.4861 42.1478 35.4167 42.1478 35.3473C42.1478 26.4861 34.9518 19.2917 26.0888 19.2917C17.2257 19.2639 10.0297 26.4445 10.0297 35.3195H13.7528L7.09856 44.625L0.444336 35.3195H4.16736C4.16736 32.3611 4.75082 29.4861 5.88996 26.7778C7.00131 24.1667 8.5711 21.8195 10.5854 19.8056C12.5997 17.7917 14.9475 16.2084 17.5592 15.1111C20.2681 13.9722 23.1437 13.3889 26.1027 13.3889C26.7 13.3889 27.2835 13.4167 27.8669 13.4584C29.5895 13.5972 31.2705 13.9306 32.9097 14.4722C33.4932 14.6667 34.0627 14.875 34.6323 15.125C37.244 16.2361 39.5917 17.8056 41.606 19.8195C43.6204 21.8334 45.204 24.1806 46.3015 26.7917C47.4406 29.4861 48.0241 32.3611 48.0241 35.3195Z" fill="#02F4BF"/>
</svg>
