<svg width="60" height="58" viewBox="0 0 60 58" fill="none" xmlns="http://www.w3.org/2000/svg">
<path d="M1.9981 4.00507C1.9981 2.62261 3.11596 1.5019 4.49492 1.5019L55.2631 1.5019C56.6421 1.5019 57.7599 2.62261 57.7599 4.00507L57.7599 53.9949C57.7599 55.3774 56.6421 56.4981 55.2631 56.4981L4.49493 56.4981C3.11596 56.4981 1.9981 55.3774 1.9981 53.9949L1.9981 4.00507Z" fill="#E15544" stroke="#E15544" stroke-width="3"/>
<path d="M27.1805 37.6883C27.1805 36.6088 27.2039 35.6936 27.2507 34.9426C27.3131 34.1917 27.4458 33.5111 27.6486 32.901C27.8515 32.3065 28.1558 31.7589 28.5615 31.2583C28.9673 30.742 29.5369 30.1945 30.2703 29.6156C30.8009 29.1306 31.3314 28.6222 31.862 28.0902C32.3926 27.5427 32.8764 26.9794 33.3133 26.4006C33.7346 25.8374 34.078 25.2585 34.3432 24.664C34.6085 24.0695 34.7412 23.475 34.7412 22.8805C34.7412 22.1609 34.6397 21.5429 34.4369 21.0266C34.234 20.4947 33.9453 20.0566 33.5708 19.7124C33.1807 19.3995 32.7047 19.1649 32.1429 19.0084C31.5967 18.852 30.9647 18.7738 30.2469 18.7738C29.6851 18.7738 29.1389 18.852 28.6083 19.0084C28.0778 19.1492 27.6096 19.3839 27.2039 19.7124C26.7825 20.041 26.4392 20.4634 26.1739 20.9797C25.9243 21.4959 25.7916 22.1139 25.776 22.8336L19.2452 22.8336C19.2608 21.2378 19.5573 19.8532 20.1347 18.6799C20.7121 17.4909 21.4924 16.5053 22.4755 15.723C23.4586 14.9408 24.6134 14.3619 25.9399 13.9864C27.2663 13.5953 28.702 13.3998 30.2469 13.3998C31.9791 13.3998 33.5318 13.5953 34.905 13.9864C36.2783 14.3776 37.4409 14.9564 38.3928 15.723C39.3291 16.5053 40.0469 17.4674 40.5463 18.6095C41.0457 19.7516 41.2953 21.0735 41.2953 22.5754C41.2953 23.6862 41.1081 24.7031 40.7336 25.6262C40.359 26.5336 39.8753 27.3784 39.2823 28.1606C38.6893 28.9585 38.0105 29.7173 37.2458 30.4369C36.4968 31.141 35.7399 31.8293 34.9753 32.5021C34.5071 32.9714 34.1404 33.386 33.8751 33.7458C33.6098 34.1057 33.4225 34.4733 33.3133 34.8488C33.1885 35.2243 33.1104 35.6388 33.0792 36.0925C33.048 36.5306 33.0324 37.0625 33.0324 37.6883L27.1805 37.6883ZM26.2208 44.7989C26.2208 43.7663 26.5563 42.9058 27.2273 42.2175C27.8983 41.5135 28.8268 41.1615 30.0128 41.1615C31.1676 41.1615 32.0883 41.5135 32.7749 42.2175C33.4772 42.9058 33.8283 43.7663 33.8283 44.7989C33.8283 45.8001 33.4772 46.645 32.7749 47.3333C32.0883 48.0061 31.1676 48.3424 30.0128 48.3424C28.8268 48.3424 27.8983 48.0061 27.2273 47.3333C26.5563 46.645 26.2208 45.8001 26.2208 44.7989Z" fill="#02F4BF"/>
</svg>
